<svg id="logo" xmlns="http://www.w3.org/2000/svg" viewBox="0 0 84.35 79">
  <path d="M71.83,0A47.05,47.05,0,0,1,0,60.65,47.05,47.05,0,1,0,71.83,0" transform="translate(0 0)" fill="#fff"/>
  <polygon points="13.93 43.16 5.4 30.43 5.4 43.16 0.29 43.16 0.29 16.64 5.4 16.64 5.4 28.66 14.01 16.64 20.21 16.64 10.51 29.45 20.64 43.16 13.93 43.16" fill="#fff"/>
  <path d="M30.41,27.56h.07c.95-2.47,2.83-4.63,6.21-4.36l-.23,4.95c-3.62-.75-5.43,1.61-5.43,7v8H26V27.49c-.94-.16-2.27-.32-3.41-.4V24a53,53,0,0,1,8.13-.35,26.48,26.48,0,0,1-.35,4" transform="translate(0 0)" fill="#fff"/>
  <path d="M50.74,45c-2.33,6.09-4.37,7.93-8.85,7.93a12.67,12.67,0,0,1-2.75-.31l.31-4.32a8.74,8.74,0,0,0,2.68.43c1.65,0,2.74-.75,3.77-3.66l.66-1.88L39.37,23.63H45l2.64,7.47c.59,1.68,1.1,3.62,1.53,5.38h0c.44-1.76,1.26-4.4,1.89-6.21l2.32-6.64h5.38Z" transform="translate(0 0)" fill="#fff"/>
  <path d="M66,43.55a27.7,27.7,0,0,1-4.09-.35L62,39.07a17,17,0,0,0,4.21.6c1.92,0,3.18-.8,3.18-2.09,0-3.45-7.9-1.49-7.9-8.13,0-3.42,2.79-6.25,8.29-6.25a22.16,22.16,0,0,1,3.58.36l-.16,4A13.82,13.82,0,0,0,69.62,27c-2,0-2.9.79-2.9,2,0,3.19,8,1.77,8,8.1,0,3.85-3.38,6.44-8.72,6.44" transform="translate(0 0)" fill="#fff"/>
  <polygon points="67.6 17.06 66.52 17.06 66.52 16.67 69.15 16.67 69.15 17.06 68.06 17.06 68.06 20.23 67.6 20.23 67.6 17.06" fill="#fff"/>
  <path d="M72.53,18.66c0-.49-.06-1.09-.06-1.53h0c-.12.41-.27.86-.44,1.35l-.63,1.72H71l-.58-1.69c-.17-.5-.31-1-.41-1.38h0c0,.44,0,1-.07,1.57l-.09,1.53h-.44l.25-3.56h.58l.61,1.72c.15.44.27.83.36,1.2h0c.09-.36.22-.75.38-1.2l.63-1.72h.59l.22,3.56h-.46Z" transform="translate(0 0)" fill="#fff"/>
</svg>
